<svg width="190" height="50" viewBox="0 0 190 50" fill="none" xmlns="http://www.w3.org/2000/svg">
<path d="M166.281 50H23.9498C10.8454 50 0.23053 38.812 0.23053 25C0.23053 11.188 10.8454 0 23.9498 0H166.281C179.385 0 190 11.188 190 25C190 38.812 179.385 50 166.281 50Z" fill="url(#paint0_linear_1_19)"/>
<path d="M164 10C155.725 10 149 16.7101 149 25C149 33.2899 155.71 40 164 40C172.29 40 179 33.2899 179 25C179 16.7101 172.275 10 164 10ZM161.277 24.6239H162.255C162.465 24.6239 162.646 24.4584 162.646 24.2327V18.335C162.646 18.1244 162.811 17.9438 163.037 17.9438H164.963C165.174 17.9438 165.354 18.1093 165.354 18.335V24.2327C165.354 24.4433 165.52 24.6239 165.745 24.6239H166.723C167.039 24.6239 167.22 25 167.024 25.2558L164.301 28.671C164.15 28.8666 163.85 28.8666 163.699 28.671L160.991 25.2558C160.78 25 160.961 24.6239 161.277 24.6239ZM172.516 30.2507V31.65C172.516 31.8606 172.35 32.0411 172.124 32.0411H157.395H155.861C155.65 32.0411 155.469 31.8756 155.469 31.65V30.2507V26.4443C155.469 26.2337 155.635 26.0531 155.861 26.0531H157.004C157.215 26.0531 157.395 26.2186 157.395 26.4443V29.8596C157.395 30.0702 157.561 30.2507 157.786 30.2507H170.153C170.364 30.2507 170.545 30.0853 170.545 29.8596V26.4443C170.545 26.2337 170.71 26.0531 170.936 26.0531H172.139C172.35 26.0531 172.531 26.2186 172.531 26.4443V30.2507H172.516Z" fill="white"/>
<defs>
<linearGradient id="paint0_linear_1_19" x1="95.1184" y1="50.007" x2="95.1184" y2="0.00415468" gradientUnits="userSpaceOnUse">
<stop stop-color="#130999"/>
<stop offset="0.3502" stop-color="#174D8F"/>
<stop offset="0.6492" stop-color="#1A7F87"/>
<stop offset="0.8745" stop-color="#1C9E83"/>
<stop offset="1" stop-color="#1DAA81"/>
</linearGradient>
</defs>
</svg>
